<?xml version="1.0" encoding="utf-8"?>
<!DOCTYPE svg PUBLIC "-//W3C//DTD SVG 1.0//EN" "http://www.w3.org/TR/2001/REC-SVG-20010904/DTD/svg10.dtd">
<svg version="1.0" xmlns="http://www.w3.org/2000/svg" width="1024px" height="1024px" viewBox="0 0 1024 1024" preserveAspectRatio="xMidYMid meet">
 <g fill="#BF8DFF" stroke="#BF8DFF" stroke-width="1">
  <path d="M665.3 755.4 c-21.1 -2.7 -41.6 -7.9 -57.3 -14.6 -13.1 -5.5 -28 -13 -28 -14 0 -0.4 -0.5 -0.8 -1.1 -0.8 -1.4 0 -16.6 -10.2 -20.6 -13.9 -1.8 -1.6 -3.4 -2.7 -3.6 -2.5 -0.2 0.3 -1.8 -1.1 -3.5 -3.1 -1.7 -1.9 -3.6 -3.5 -4.1 -3.5 -2.2 0 -32.1 -31.5 -32.1 -33.8 0 -0.7 -0.4 -1.2 -0.8 -1.2 -0.4 0 -2.1 -2 -3.7 -4.6 -1.6 -2.5 -3.9 -5.7 -5.2 -7.2 -1.3 -1.5 -2.3 -3 -2.3 -3.4 0 -0.3 -2.2 -3.9 -4.8 -8 -2.6 -4 -6.7 -11.1 -9.1 -15.8 -2.3 -4.7 -4.6 -9.2 -5.1 -10 -1.4 -2.3 -6.1 -13.5 -6.4 -15.1 -0.1 -0.8 -1 -3.1 -1.9 -5.3 -0.9 -2.1 -1.7 -4.2 -1.7 -4.5 0 -0.4 -1.6 -5.6 -3.5 -11.5 -1.9 -5.9 -3.9 -13.3 -4.4 -16.4 -0.6 -3.2 -1.7 -9.5 -2.6 -14.2 -4.4 -24.4 -4.4 -61.3 0.1 -89 3.3 -20.5 7.1 -34.5 14.3 -52.5 3.7 -9.3 17.1 -34.5 18.3 -34.5 0.4 0 0.8 -0.5 0.8 -1 0 -1.3 10.2 -16.8 12.9 -19.7 1.2 -1.2 2.1 -2.5 2.1 -2.9 0 -0.3 1.4 -1.9 3 -3.4 1.7 -1.5 3 -3.2 3 -3.7 0 -1.6 21.1 -23.3 22.1 -22.7 0.5 0.3 0.9 0 0.9 -0.7 0 -1.2 1.4 -2.6 8.4 -8.2 2.1 -1.8 4.4 -3.8 5.1 -4.5 0.8 -0.6 1.8 -1.2 2.3 -1.2 0.5 0 1.7 -0.9 2.7 -2 1 -1.1 2.2 -2 2.7 -2 0.5 0 1.8 -0.9 3 -2 1.2 -1.1 2.8 -2 3.5 -2 0.7 0 1.3 -0.4 1.3 -1 0 -0.5 0.4 -1 1 -1 0.5 0 2.5 -1.1 4.4 -2.4 4.6 -3.1 28.2 -14.6 30 -14.6 0.4 0 2.5 -0.8 4.9 -1.9 10.4 -4.6 29.2 -9.2 46.2 -11.1 5.5 -0.7 13 -1.6 16.7 -2.1 9.3 -1.3 18.1 -1.1 33.3 0.6 30.3 3.3 40.9 5.7 61 13.7 13.9 5.6 30.5 13.9 32.5 16.3 0.7 0.8 1.7 1.5 2.2 1.5 1.5 0 17.3 10.8 19.9 13.6 1.2 1.3 2.9 2.4 3.6 2.4 1.6 0 37.3 35.4 37.3 37 0 0.6 1.7 2.9 3.8 5.1 2 2.2 4.3 5.3 5.1 6.7 0.8 1.5 2.6 4.3 4.1 6.2 1.5 1.9 4 5.8 5.5 8.5 1.6 2.8 3.6 6.4 4.6 8 2.5 4.3 11.9 23.4 11.9 24.4 0 0.4 0.9 2.6 2 4.9 3.1 6.5 12 33.9 12 37.1 0 1.1 0.4 3 0.9 4.3 1.1 2.8 3.6 21 5.1 37.1 1.7 17.2 -0.1 45.6 -3.9 65.3 -1.9 9.9 -6.3 26.7 -8 30.9 -0.5 1.1 -2.1 5.8 -3.5 10.5 -3.4 10.5 -9.4 24.9 -11.4 27.3 -0.8 0.9 -1.2 1.7 -0.9 1.7 2.1 0 -18 32.1 -24.6 39.5 -2 2.2 -3.7 4.3 -3.7 4.7 0 1.1 -11.1 13.8 -16 18.3 -2.3 2.2 -6.3 6.1 -8.8 8.8 -2.5 2.6 -5 4.7 -5.5 4.7 -0.5 0 -1.7 0.8 -2.6 1.8 -1.9 2 -9.8 8.2 -10.5 8.2 -0.3 0 -1.6 1 -3 2.3 -1.3 1.2 -3.7 2.9 -5.3 3.7 -1.5 0.8 -3 1.8 -3.3 2.1 -0.6 0.7 -17 9.9 -17.7 9.9 -0.3 0 -4.4 1.8 -9.2 4.1 -13.4 6.4 -22 9.5 -37.8 13.6 -22.8 5.9 -53.2 7.8 -77 4.7z m40.7 -38.4 c3.6 -0.5 8.8 -1.1 11.5 -1.4 2.8 -0.3 8.2 -1.3 12 -2.2 3.9 -0.9 7.7 -1.7 8.5 -1.9 3.2 -0.6 22.9 -7.6 25.6 -9 1.6 -0.8 3.4 -1.5 4 -1.5 0.6 0 5.2 -2.5 10.2 -5.5 5 -3 9.5 -5.5 10 -5.5 0.5 0 2.2 -1.3 3.8 -3 1.6 -1.6 3.4 -3 4 -3 1.9 0 10.5 -7.1 9.8 -8.1 -0.4 -0.6 -1.4 -0.5 -2.8 0.4 -2.9 1.9 -33.5 14.4 -38.3 15.6 -2.1 0.6 -6.5 1.7 -9.8 2.6 -3.3 0.8 -8.7 1.8 -12 2.1 -3.3 0.3 -6.5 1 -7.2 1.5 -0.7 0.6 -1.3 0.6 -1.7 0.1 -0.3 -0.6 -2.6 -0.6 -5.8 0 -4.9 0.9 -26.7 0.5 -34.8 -0.7 -11.6 -1.6 -17.3 -2.9 -28 -6.1 -11.4 -3.4 -16.9 -5.3 -20.7 -7 -1.8 -0.8 -4.8 -2 -6.5 -2.8 -1.8 -0.8 -5.9 -2.6 -9.1 -4 -3.2 -1.4 -6.4 -2.6 -7.2 -2.6 -0.8 0 -1.5 -0.4 -1.5 -0.9 0 -0.5 -1.9 -1.7 -4.2 -2.7 -5.5 -2.5 -21.8 -13.3 -21.8 -14.5 0 -0.5 -0.6 -0.9 -1.4 -0.9 -1.8 0 -19.4 -17.4 -26.1 -25.8 -2.7 -3.4 -5.3 -6.2 -5.7 -6.2 -0.5 0 -0.8 -0.7 -0.8 -1.5 0 -0.8 -0.9 -2.3 -2 -3.2 -1.1 -1 -2 -2.1 -2 -2.6 0 -0.4 -2.4 -4.3 -5.2 -8.5 -2.9 -4.2 -5.8 -8.6 -6.5 -9.7 -2.5 -4.3 -10.2 -20.3 -12.3 -25.5 -1.1 -3 -2.5 -6.4 -3 -7.5 -1.1 -2.7 -2.6 -7.2 -3.8 -12 -0.6 -2.2 -2 -6.9 -3 -10.5 -1.1 -3.6 -2.5 -11.2 -3.1 -17 -0.7 -5.8 -1.6 -13 -2.1 -16.1 -1.2 -8.2 0.4 -46.4 2 -46.4 0.1 0 0.4 -2.2 0.6 -5 0.3 -2.7 0.8 -5.2 1.2 -5.5 0.4 -0.3 2.1 -6.1 3.8 -13 3.8 -15 10.3 -29.2 20.1 -44 8 -11.9 20.7 -27 22.8 -27 0.8 0 2.3 1.7 3.4 3.7 1.1 2.1 4.1 5.9 6.8 8.5 10.2 9.9 22.7 11.4 36.8 4.4 8.3 -4.1 13.1 -8.9 17.2 -17.6 2.4 -4.8 2.7 -6.8 2.8 -15 0 -8.7 -0.3 -10.1 -3.2 -16 -1.7 -3.5 -3 -6.7 -2.8 -7.1 0.3 -0.3 4.2 -2 8.7 -3.7 36.8 -13.7 72.2 -14.6 111.3 -3 34.8 10.3 63 28.7 86 55.9 3.9 4.5 9.2 10.5 11.8 13.3 l4.8 5.1 -1.9 -4 c-4.6 -9.2 -21.8 -30.2 -35.9 -43.5 -25.8 -24.5 -59.3 -41 -96.3 -47.6 -12.7 -2.3 -39.5 -2.3 -54.4 0 -19.5 3.1 -37.4 8.7 -47.1 14.8 -2.2 1.4 -6.4 2.8 -9.3 3.2 -10.4 1.4 -16.1 4.2 -23.5 11.8 -3.7 3.8 -9.6 9.2 -13 12 -16.6 13.6 -35 35.1 -45.5 53.4 -11.5 20.1 -21.4 45.9 -26.4 68.5 -2.1 9.5 -2.3 12.8 -2.2 37.9 0 28.4 0.6 34.6 5.9 58.5 4.6 21 16.6 48.5 29.5 67.4 11.6 17.2 29.3 36.3 43 46.5 5.2 3.8 10.1 7.6 10.8 8.3 0.7 0.7 1.9 1.3 2.6 1.3 0.7 0 2.1 0.9 3.1 2 1 1.1 2.3 2 2.8 2 0.6 0 4.2 2 8.1 4.4 15.2 9.3 32.9 15.9 55.6 20.6 11.1 2.4 16 2.9 28 2.9 8 0 17.4 -0.4 21 -0.9z m14.2 -189.8 c8.2 -3.9 14.8 -10.9 19.3 -20.2 10.3 -21.6 4.9 -44.4 -13.9 -58.6 -11.3 -8.6 -27.4 -10.8 -39.2 -5.3 -13.9 6.5 -25.4 25.8 -25.4 42.9 0 16.7 10.4 33.8 24.8 41.1 6.7 3.3 9.8 3.9 19.3 3.5 7.1 -0.3 9.7 -0.9 15.1 -3.4z m128.5 -2.1 c7.2 -3.9 10.9 -7.5 15.7 -15.5 10.3 -17.2 8.4 -37.3 -5 -51.6 -11.1 -11.9 -24.4 -15.6 -38.2 -10.8 -16.7 5.9 -28.6 27.3 -25.4 45.8 4.9 27.6 31.2 43.6 52.9 32.1z m-284.4 -77.2 c8.9 -4.6 11.9 -14.1 7.6 -23.5 -4.4 -9.2 -14.3 -12.2 -22.4 -6.6 -10.8 7.5 -10.9 22.7 -0.1 29.3 3.5 2.1 11.5 2.6 14.9 0.8z"/>
  <path d="M389.5 652.3 c-12.6 -5.1 -18.5 -14.3 -18.5 -28.9 0 -12 7 -22.7 17.1 -26.4 6.7 -2.5 11 -2.5 18.3 -0.1 11.6 3.8 19.9 19.1 17.7 32.8 -2.7 17.5 -19.7 28.6 -34.6 22.6z"/>
  <path d="M191.7 634.9 c-3.7 -1 -6.8 -3.3 -6.2 -4.6 0.2 -0.7 0 -1.3 -0.5 -1.3 -2.2 0 -0.9 -6 1.8 -9.1 l2.8 -3.2 59.2 -0.5 59.1 -0.4 3.1 3 c3.5 3.6 3.8 6.9 0.9 10.6 -4.1 5.2 -2.7 5.1 -62.2 5.6 -30.7 0.3 -56.8 0.2 -58 -0.1z"/>
  <path d="M132.4 542.2 c-5 -4.4 -5.8 -6.8 -3.9 -10.8 3.1 -6.6 -7.4 -6.1 154.5 -6.9 l147.5 -0.8 2.8 2.8 c1.5 1.5 2.8 3.2 2.8 3.6 0.1 0.5 0.2 1.5 0.3 2.2 0.4 2.6 -1.6 6.5 -4.5 8.6 l-3.1 2.3 -127.1 0.8 c-70 0.5 -136 0.9 -146.7 0.9 l-19.5 0.1 -3.1 -2.8z"/>
  <path d="M369.2 427.3 c-2.9 -1.4 -5 -2.8 -4.7 -3.1 0.3 -0.3 -0.5 -1 -1.6 -1.6 -1.2 -0.6 -2 -1.4 -1.8 -1.8 0.2 -0.4 -0.4 -1.3 -1.3 -2 -2.5 -1.8 -5.8 -12.2 -5.8 -17.9 0 -13.1 13.7 -27.7 26.1 -27.9 14.3 -0.2 28.6 17.4 26.5 32.6 -2.5 18.6 -21.5 29.7 -37.4 21.7z"/>
  <path d="M106.8 410.5 c-6.8 -3.7 -6.5 -12.4 0.5 -16.2 3 -1.7 9.4 -1.8 90.1 -2.1 65.3 -0.2 87.6 0 89.8 0.9 1.6 0.6 4 2.5 5.3 4.1 3.1 3.6 2.6 6.9 -1.6 11.3 l-2.9 3 -89.3 0.2 c-77.4 0.2 -89.6 0 -91.9 -1.2z"/>
 </g>
</svg>