<svg width="32" height="30" viewBox="0 0 32 30" fill="none" xmlns="http://www.w3.org/2000/svg">
<path d="M30.71 13.4916L2.37666 0.158306C2.09136 0.024057 1.77382 -0.0265053 1.46093 0.0124913C1.14804 0.0514878 0.852624 0.178443 0.608998 0.378615C0.365371 0.578786 0.183526 0.843961 0.0845777 1.14335C-0.0143705 1.44273 -0.026362 1.76405 0.0499963 2.06997L2.07 10.1516L15 15L2.07 19.8483L0.0499963 27.93C-0.0277987 28.2361 -0.016808 28.5581 0.0816826 28.8582C0.180173 29.1584 0.362091 29.4243 0.606157 29.6248C0.850223 29.8253 1.14635 29.9522 1.45988 29.9906C1.77342 30.029 2.09142 29.9773 2.37666 29.8416L30.71 16.5083C30.9963 16.3737 31.2384 16.1604 31.408 15.8933C31.5776 15.6262 31.6676 15.3164 31.6676 15C31.6676 14.6836 31.5776 14.3737 31.408 14.1066C31.2384 13.8395 30.9963 13.6262 30.71 13.4916Z" fill="#BF8DFF"/>
</svg>
